<?xml version="1.0" standalone="no"?>
<!DOCTYPE svg PUBLIC "-//W3C//DTD SVG 20010904//EN"
 "http://www.w3.org/TR/2001/REC-SVG-20010904/DTD/svg10.dtd">
<svg version="1.0" xmlns="http://www.w3.org/2000/svg"
 width="500.000000pt" height="500.000000pt" viewBox="0 0 500.000000 500.000000"
 preserveAspectRatio="xMidYMid meet">

<g transform="translate(0.000000,500.000000) scale(0.100000,-0.100000)"
fill="#000000" stroke="none">
<path d="M0 2500 l0 -2500 2500 0 2500 0 0 2500 0 2500 -2500 0 -2500 0 0
-2500z m2318 1321 l53 -44 -7 -66 c-6 -65 -5 -68 21 -85 18 -12 46 -18 86 -17
102 0 158 54 146 140 -2 21 -2 43 2 49 7 13 102 55 108 48 2 -2 -14 -40 -36
-85 -23 -45 -39 -81 -36 -81 3 0 21 7 40 14 19 8 35 13 35 10 0 -2 -12 -23
-27 -46 -23 -33 -28 -55 -32 -116 l-3 -74 -27 6 c-50 12 -219 19 -257 11 l-39
-8 30 -7 30 -8 -31 -1 c-58 -2 -189 -41 -273 -81 -46 -22 -85 -39 -87 -37 -2
2 -7 17 -10 35 -6 29 -4 32 52 60 112 56 252 97 394 116 19 2 -6 3 -55 1 -98
-5 -243 -38 -344 -79 l-63 -25 -35 26 c-26 20 -31 28 -20 32 11 5 3 19 -34 61
l-48 55 27 8 c42 11 65 1 87 -40 25 -48 56 -63 127 -63 50 0 62 4 93 31 48 43
54 71 21 113 -31 42 -32 55 -6 132 33 95 28 89 48 72 9 -8 41 -34 70 -57z
m360 -426 c92 -30 183 -80 177 -98 -3 -6 25 -52 61 -101 36 -49 67 -97 69
-107 2 -10 40 -65 84 -123 45 -57 81 -107 81 -110 0 -8 -48 -8 -77 0 -11 3
-24 16 -28 27 -6 21 -7 20 -20 -8 -13 -29 -13 -30 39 -59 28 -16 52 -30 54
-31 6 -6 -26 -60 -45 -77 -18 -17 -24 -17 -101 -2 -48 10 -90 25 -102 36 -22
21 -74 98 -68 103 2 1 25 11 53 21 l50 19 -42 7 c-127 21 -213 96 -213 183 0
45 42 92 92 102 31 7 29 8 -32 20 l-65 12 -27 -31 c-37 -42 -62 -120 -55 -170
5 -38 4 -39 -9 -19 -45 64 -58 114 -59 224 0 118 -4 120 -49 27 -18 -39 -21
-63 -21 -170 0 -69 4 -138 9 -155 8 -29 9 -27 30 40 l22 70 13 -60 c18 -83 72
-182 131 -240 l49 -48 6 29 c3 16 11 49 18 74 l11 45 13 -65 c17 -85 53 -157
109 -219 51 -57 42 -66 -33 -31 -53 24 -55 11 -5 -30 50 -42 132 -79 200 -92
32 -6 64 -13 72 -15 22 -6 -35 -39 -95 -54 -27 -7 -51 -14 -53 -14 -1 -1 7
-37 18 -81 26 -102 28 -226 3 -297 l-18 -52 -6 80 c-5 73 -35 188 -58 224 -5
8 -9 -25 -8 -85 0 -66 -5 -119 -17 -159 -20 -66 -65 -152 -95 -179 -19 -17
-19 -16 1 56 12 44 22 120 25 193 5 111 3 126 -20 195 -36 104 -65 231 -73
317 -4 40 -11 73 -17 73 -6 0 -7 -56 -2 -162 14 -294 12 -376 -13 -438 -23
-58 -81 -164 -87 -158 -1 1 3 32 11 68 21 97 28 254 15 338 -6 40 -25 114 -41
165 -31 97 -59 241 -61 311 l-1 41 -10 -45 c-12 -56 -3 -245 17 -365 19 -114
19 -252 0 -331 -13 -58 -59 -174 -68 -174 -2 0 -1 19 4 43 23 117 5 242 -56
407 -75 199 -93 339 -61 475 8 33 13 61 11 63 -7 7 -44 -67 -59 -117 -22 -74
-20 -179 4 -301 11 -56 20 -123 20 -150 0 -56 -34 -172 -55 -190 -13 -11 -15
-7 -15 26 0 62 -17 150 -55 284 -19 69 -38 154 -41 190 -6 59 6 181 22 227 13
36 -13 -2 -32 -47 -17 -39 -19 -72 -19 -265 -1 -141 -5 -241 -14 -277 -13 -61
-31 -78 -31 -30 0 47 -47 204 -107 358 -57 149 -57 149 -58 259 0 107 1 112
38 189 28 59 55 97 111 152 41 41 70 74 66 74 -13 0 -128 -78 -171 -117 -42
-38 -42 -38 -26 -8 8 17 36 58 61 92 77 102 169 166 295 204 63 19 89 21 188
17 l115 -5 -29 19 -28 20 53 -7 c30 -3 88 -17 130 -30z m330 -737 c17 -5 32
-16 32 -24 0 -18 -41 -83 -66 -106 -18 -16 -19 -15 -19 22 -1 38 -14 65 -22
44 -2 -6 -21 6 -42 25 -21 20 -37 38 -35 40 7 8 79 17 99 13 11 -2 35 -8 53
-14z m-1658 -1118 l0 -90 85 0 c84 0 85 0 85 -25 l0 -25 -130 0 -130 0 0 115
0 115 45 0 45 0 0 -90z m298 -27 l3 -113 -51 0 -50 0 0 108 c0 60 3 112 7 116
4 4 25 6 48 4 l40 -3 3 -112z m286 103 c46 -19 66 -52 66 -106 0 -39 -5 -51
-31 -76 -29 -28 -35 -29 -119 -29 -74 0 -93 3 -117 21 -32 24 -49 77 -39 118
8 33 49 73 79 79 49 10 130 6 161 -7z m281 -61 c33 -41 63 -74 68 -75 4 0 7
34 7 75 l0 75 45 0 45 0 0 -115 0 -115 -57 0 -58 1 -60 74 -60 74 -3 -74 -3
-75 -49 0 -50 0 0 108 c0 60 3 112 7 115 3 4 29 7 57 7 l51 0 60 -75z m393 23
c2 -27 5 -48 8 -48 3 0 39 23 80 50 71 48 78 51 131 48 l57 -3 -77 -50 c-42
-27 -75 -54 -74 -60 2 -5 36 -32 75 -60 l71 -50 -55 -3 c-52 -3 -60 0 -108 36
l-52 40 -27 -20 c-15 -11 -27 -28 -27 -39 0 -16 -7 -19 -50 -19 l-50 0 0 108
c0 60 3 112 7 116 4 4 25 6 48 4 l40 -3 3 -47z m402 -63 l0 -115 -45 0 -45 0
0 115 0 115 45 0 45 0 0 -115z m222 41 l63 -74 5 71 5 72 45 0 45 0 3 -112 3
-113 -58 0 -58 0 -60 75 c-33 41 -63 74 -67 75 -5 0 -8 -34 -8 -75 l0 -75 -45
0 -45 0 0 115 0 115 54 0 55 0 63 -74z m472 50 c14 -9 30 -25 36 -36 10 -19 8
-20 -44 -20 -30 0 -58 5 -61 10 -10 16 -67 12 -87 -7 -21 -19 -23 -52 -5 -76
12 -16 39 -22 85 -19 24 2 31 22 7 22 -8 0 -15 7 -15 15 0 12 14 15 65 15 l65
0 0 -55 c0 -48 -3 -55 -19 -55 -11 0 -21 5 -23 11 -2 7 -12 7 -31 0 -16 -6
-55 -11 -88 -11 -99 0 -149 39 -149 116 0 50 28 90 73 104 46 14 162 6 191
-14z m-1984 -396 c0 -43 3 -50 20 -50 11 0 20 -4 20 -10 0 -5 -16 -10 -35 -10
l-35 0 0 60 c0 47 3 60 15 60 11 0 15 -12 15 -50z m172 3 c3 -41 6 -48 26 -51
20 -3 22 0 22 47 0 40 3 51 16 51 14 0 16 -9 12 -51 -5 -53 -18 -69 -53 -69
-33 0 -45 20 -45 72 0 62 18 63 22 1z m213 27 c3 -11 9 -20 13 -20 4 0 13 9
20 20 20 32 35 23 15 -10 -17 -29 -17 -31 0 -60 21 -35 6 -41 -17 -8 l-16 22
-16 -22 c-23 -33 -38 -27 -17 8 17 29 17 31 0 60 -15 25 -16 30 -3 30 8 0 18
-9 21 -20z m197 -27 c3 -40 6 -48 23 -48 17 0 20 8 23 48 2 26 8 47 13 47 6 0
9 -22 7 -51 -3 -59 -20 -76 -61 -65 -25 6 -27 10 -27 61 0 67 18 73 22 8z
m252 31 c12 -12 14 -20 5 -35 -8 -16 -7 -26 6 -45 14 -21 14 -24 0 -24 -8 0
-21 11 -27 25 -6 14 -15 25 -20 25 -4 0 -8 -11 -8 -25 0 -14 -4 -25 -10 -25
-6 0 -10 27 -10 60 0 57 1 60 24 60 14 0 32 -7 40 -16z m146 -44 c0 -33 -4
-60 -10 -60 -6 0 -10 27 -10 60 0 33 4 60 10 60 6 0 10 -27 10 -60z m220 28
c13 -25 13 -31 0 -55 -17 -31 -48 -40 -79 -23 -28 14 -30 84 -3 99 29 18 65 8
82 -21z m142 -15 c3 -40 6 -48 23 -48 17 0 20 8 23 48 2 26 8 47 13 47 6 0 9
-22 7 -51 -3 -59 -20 -76 -61 -65 -25 6 -27 10 -27 61 0 67 18 73 22 8z m243
37 c3 -5 -3 -10 -14 -10 -31 0 -35 -19 -6 -32 20 -9 25 -18 23 -37 -2 -21 -9
-27 -35 -29 -19 -2 -33 1 -33 7 0 6 11 11 25 11 14 0 25 4 25 9 0 5 -11 16
-25 25 -27 18 -32 35 -13 54 15 15 45 16 53 2z"/>
<path d="M2247 3793 c-14 -13 -7 -53 11 -62 37 -20 70 27 40 57 -13 13 -41 16
-51 5z"/>
<path d="M2812 3078 c43 -24 91 -55 108 -71 35 -32 38 -27 9 20 -12 18 -19 40
-16 47 7 19 -34 33 -116 41 l-62 6 77 -43z"/>
<path d="M1796 1548 c-21 -30 -20 -51 4 -73 24 -21 72 -24 94 -5 21 16 20 64
0 84 -24 24 -80 20 -98 -6z"/>
<path d="M2510 1220 c0 -13 5 -18 15 -14 8 4 15 12 15 20 0 8 -7 14 -15 14 -8
0 -15 -9 -15 -20z"/>
<path d="M2844 1226 c-3 -8 -4 -25 -2 -38 2 -17 9 -23 28 -23 22 0 25 4 25 35
0 29 -4 36 -23 38 -13 2 -24 -3 -28 -12z"/>
</g>
</svg>
